HIERARCHY
ROOT Hips
{
	OFFSET 0.000000 103.266502 0.000000
	CHANNELS 6 Xposition Yposition Zposition Xrotation Yrotation Zrotation 
	JOINT Spine
	{
		OFFSET -0.002400 12.777504 0.315300
		CHANNELS 3 Xrotation Yrotation Zrotation
		JOINT Spine1
		{
			OFFSET -0.002067 5.816869 0.032633
			CHANNELS 3 Xrotation Yrotation Zrotation
			JOINT Spine1_split
			{
				OFFSET -0.002067 5.816869 0.032633
				CHANNELS 3 Xrotation Yrotation Zrotation
				JOINT Spine2
				{
					OFFSET -0.002067 5.816869 0.032633
					CHANNELS 3 Xrotation Yrotation Zrotation
					JOINT Neck
					{
						OFFSET -0.003700 21.199493 -0.826900
						CHANNELS 3 Xrotation Yrotation Zrotation
						JOINT Head
						{
							OFFSET 0.000000 20.442200 4.834800
							CHANNELS 3 Xrotation Yrotation Zrotation
							JOINT HeadTop_End
							{
								OFFSET 0.000000 34.668396 4.968400
								CHANNELS 3 Xrotation Yrotation Zrotation
								End Site
								{
									OFFSET 0.000000 0.000000 0.000000
								}
							}
						}
					}
					JOINT LeftShoulder
					{
						OFFSET 3.288150 8.794197 -1.372250
						CHANNELS 3 Xrotation Yrotation Zrotation
						JOINT LeftShoulder_split
						{
							OFFSET 3.288150 8.794197 -1.372250
							CHANNELS 3 Xrotation Yrotation Zrotation
							JOINT LeftArm
							{
								OFFSET 11.953299 -2.279007 -0.146200
								CHANNELS 3 Xrotation Yrotation Zrotation
								JOINT LeftForeArm
								{
									OFFSET 18.448900 0.000000 0.000000
									CHANNELS 3 Xrotation Yrotation Zrotation
									JOINT LeftHand
									{
										OFFSET 29.527798 0.000000 0.000000
										CHANNELS 3 Xrotation Yrotation Zrotation
										JOINT LeftHandThumb1
										{
											OFFSET 10.739754 -2.369614 9.225399
											CHANNELS 3 Xrotation Yrotation Zrotation
											JOINT LeftHandThumb2
											{
												OFFSET 4.926170 -2.844131 2.844125
												CHANNELS 3 Xrotation Yrotation Zrotation
												JOINT LeftHandThumb3
												{
													OFFSET 4.614891 -2.664413 2.664409
													CHANNELS 3 Xrotation Yrotation Zrotation
													JOINT LeftHandThumb4
													{
														OFFSET 4.432465 -2.559082 2.559083
														CHANNELS 3 Xrotation Yrotation Zrotation
														End Site
														{
															OFFSET 0.000000 0.000000 0.000000
														}
													}
												}
											}
										}
										JOINT LeftHandIndex1
										{
											OFFSET 26.467674 0.187653 6.405298
											CHANNELS 3 Xrotation Yrotation Zrotation
											JOINT LeftHandIndex2
											{
												OFFSET 8.792900 0.000000 0.000000
												CHANNELS 3 Xrotation Yrotation Zrotation
												JOINT LeftHandIndex3
												{
													OFFSET 10.075203 0.000000 0.000000
													CHANNELS 3 Xrotation Yrotation Zrotation
													End Site
													{
														OFFSET 0.000000 0.000000 0.000000
													}
												}
											}
										}
										JOINT LeftHandMiddle1
										{
											OFFSET 25.764404 0.000000 0.000000
											CHANNELS 3 Xrotation Yrotation Zrotation
											JOINT LeftHandMiddle2
											{
												OFFSET 9.393974 0.000000 0.000000
												CHANNELS 3 Xrotation Yrotation Zrotation
												JOINT LeftHandMiddle3
												{
													OFFSET 10.771950 0.000000 0.000000
													CHANNELS 3 Xrotation Yrotation Zrotation
													End Site
													{
														OFFSET 0.000000 0.000000 0.000000
													}
												}
											}
										}
										JOINT LeftHandRing1
										{
											OFFSET 24.660927 0.144547 -6.225808
											CHANNELS 3 Xrotation Yrotation Zrotation
											JOINT LeftHandRing2
											{
												OFFSET 9.393799 0.000000 0.000000
												CHANNELS 3 Xrotation Yrotation Zrotation
												JOINT LeftHandRing3
												{
													OFFSET 9.928497 0.000000 0.000000
													CHANNELS 3 Xrotation Yrotation Zrotation
													End Site
													{
														OFFSET 0.000000 0.000000 0.000000
													}
												}
											}
										}
										JOINT LeftHandPinky1
										{
											OFFSET 23.655350 0.125290 -12.815412
											CHANNELS 3 Xrotation Yrotation Zrotation
											JOINT LeftHandPinky2
											{
												OFFSET 8.425102 0.000000 0.000000
												CHANNELS 3 Xrotation Yrotation Zrotation
												JOINT LeftHandPinky3
												{
													OFFSET 8.147003 0.000000 0.000000
													CHANNELS 3 Xrotation Yrotation Zrotation
													End Site
													{
														OFFSET 0.000000 0.000000 0.000000
													}
												}
											}
										}
									}
								}
							}
						}
					}
					JOINT RightShoulder
					{
						OFFSET -3.249400 8.794197 -1.372250
						CHANNELS 3 Xrotation Yrotation Zrotation
						JOINT RightShoulder_split
						{
							OFFSET -3.249400 8.794197 -1.372250
							CHANNELS 3 Xrotation Yrotation Zrotation
							JOINT RightArm
							{
								OFFSET -11.953299 -2.279007 -0.146200
								CHANNELS 3 Xrotation Yrotation Zrotation
								JOINT RightForeArm
								{
									OFFSET -18.448900 0.000000 0.000000
									CHANNELS 3 Xrotation Yrotation Zrotation
									JOINT RightHand
									{
										OFFSET -29.527802 0.000000 0.000000
										CHANNELS 3 Xrotation Yrotation Zrotation
										JOINT RightHandThumb1
										{
											OFFSET -10.739754 -2.369614 9.225399
											CHANNELS 3 Xrotation Yrotation Zrotation
											JOINT RightHandThumb2
											{
												OFFSET -4.926170 -2.844131 2.844125
												CHANNELS 3 Xrotation Yrotation Zrotation
												JOINT RightHandThumb3
												{
													OFFSET -4.614891 -2.664413 2.664409
													CHANNELS 3 Xrotation Yrotation Zrotation
													JOINT RightHandThumb4
													{
														OFFSET -4.432465 -2.559082 2.559083
														CHANNELS 3 Xrotation Yrotation Zrotation
														End Site
														{
															OFFSET 0.000000 0.000000 0.000000
														}
													}
												}
											}
										}
										JOINT RightHandIndex1
										{
											OFFSET -26.467674 0.187653 6.405298
											CHANNELS 3 Xrotation Yrotation Zrotation
											JOINT RightHandIndex2
											{
												OFFSET -8.792900 0.000000 0.000000
												CHANNELS 3 Xrotation Yrotation Zrotation
												JOINT RightHandIndex3
												{
													OFFSET -10.075203 0.000000 0.000000
													CHANNELS 3 Xrotation Yrotation Zrotation
													End Site
													{
														OFFSET 0.000000 0.000000 0.000000
													}
												}
											}
										}
										JOINT RightHandMiddle1
										{
											OFFSET -25.764404 0.000000 0.000000
											CHANNELS 3 Xrotation Yrotation Zrotation
											JOINT RightHandMiddle2
											{
												OFFSET -9.393974 0.000000 0.000000
												CHANNELS 3 Xrotation Yrotation Zrotation
												JOINT RightHandMiddle3
												{
													OFFSET -10.771950 0.000000 0.000000
													CHANNELS 3 Xrotation Yrotation Zrotation
													End Site
													{
														OFFSET 0.000000 0.000000 0.000000
													}
												}
											}
										}
										JOINT RightHandRing1
										{
											OFFSET -24.660927 0.144547 -6.225808
											CHANNELS 3 Xrotation Yrotation Zrotation
											JOINT RightHandRing2
											{
												OFFSET -9.393799 0.000000 0.000000
												CHANNELS 3 Xrotation Yrotation Zrotation
												JOINT RightHandRing3
												{
													OFFSET -9.928497 0.000000 0.000000
													CHANNELS 3 Xrotation Yrotation Zrotation
													End Site
													{
														OFFSET 0.000000 0.000000 0.000000
													}
												}
											}
										}
										JOINT RightHandPinky1
										{
											OFFSET -23.655350 0.125290 -12.815412
											CHANNELS 3 Xrotation Yrotation Zrotation
											JOINT RightHandPinky2
											{
												OFFSET -8.425102 0.000000 0.000000
												CHANNELS 3 Xrotation Yrotation Zrotation
												JOINT RightHandPinky3
												{
													OFFSET -8.147003 0.000000 0.000000
													CHANNELS 3 Xrotation Yrotation Zrotation
													End Site
													{
														OFFSET 0.000000 0.000000 0.000000
													}
												}
											}
										}
									}
								}
							}
						}
					}
				}
			}
		}
	}
	JOINT LeftUpLeg
	{
		OFFSET 11.394100 -6.187798 -0.413800
		CHANNELS 3 Xrotation Yrotation Zrotation
		JOINT LeftLeg
		{
			OFFSET 0.430247 -32.302673 3.732800
			CHANNELS 3 Xrotation Yrotation Zrotation
			JOINT LeftFoot
			{
				OFFSET -0.430247 -48.264931 -6.423300
				CHANNELS 3 Xrotation Yrotation Zrotation
				JOINT LeftToeBase
				{
					OFFSET 4.230900 -16.068199 23.438400
					CHANNELS 3 Xrotation Yrotation Zrotation
					JOINT LeftToe_End
					{
						OFFSET 4.510700 0.695400 19.974600
						CHANNELS 3 Xrotation Yrotation Zrotation
						End Site
						{
							OFFSET 0.000000 0.000000 0.000000
						}
					}
				}
			}
		}
	}
	JOINT RightUpLeg
	{
		OFFSET -11.333700 -6.187798 -0.413800
		CHANNELS 3 Xrotation Yrotation Zrotation
		JOINT RightLeg
		{
			OFFSET -0.430392 -32.302628 3.733000
			CHANNELS 3 Xrotation Yrotation Zrotation
			JOINT RightFoot
			{
				OFFSET 0.430392 -48.264973 -6.423500
				CHANNELS 3 Xrotation Yrotation Zrotation
				JOINT RightToeBase
				{
					OFFSET -4.230900 -16.068199 23.438400
					CHANNELS 3 Xrotation Yrotation Zrotation
					JOINT RightToe_End
					{
						OFFSET -4.510700 0.695400 19.974600
						CHANNELS 3 Xrotation Yrotation Zrotation
						End Site
						{
							OFFSET 0.000000 0.000000 0.000000
						}
					}
				}
			}
		}
	}
}
MOTION
Frames: 5
Frame Time: 0.016667
0.868664 87.840919 34.462719 11.281435 -1.127050 -5.272518 10.000281 1.592756 7.398580 2.029107 -0.047010 0.508497 0.000000 0.000000 0.000000 4.987205 -0.052526 0.186541 -3.841294 -0.341669 -0.277916 -16.135757 0.809280 -3.139612 0.000001 0.000000 0.000000 0.557757 -4.314609 -11.777488 0.000000 0.000000 0.000000 13.923811 -4.816968 -56.121383 89.956685 -88.251522 89.945989 3.946653 -2.534490 11.903157 -0.820508 6.623777 -5.864582 14.168481 15.386729 18.402794 -0.847682 -39.830450 12.903380 0.000002 0.000000 -0.000000 9.947272 5.735760 -90.836264 4.054215 5.569240 -72.086397 0.000003 -0.000001 0.000000 4.883435 8.107995 -80.603363 4.657622 5.728468 -78.210775 -0.000001 -0.000000 -0.000000 2.753112 7.678697 -78.443527 5.946874 5.850284 -90.939857 0.000000 0.000000 0.000002 7.311313 13.596501 -78.537244 4.413854 5.672385 -75.756961 -0.000000 0.000000 0.000001 0.567971 4.488694 11.813869 0.000000 0.000000 0.000000 -16.187038 25.518743 44.451158 0.011138 90.272684 -0.010837 7.843961 11.318566 -12.809353 5.535790 -3.771058 -3.032810 2.457520 -9.078647 -15.939563 -8.950783 17.083968 -15.511802 -0.000001 -0.000001 -0.000000 -3.723520 -3.298344 73.104990 3.463122 -4.501832 75.128488 -0.000001 -0.000000 -0.000001 -3.073213 -4.980234 74.622351 3.766060 -4.571289 78.956994 -0.000001 0.000001 0.000001 -3.819533 -5.359662 78.849534 3.124239 -4.398166 70.762843 0.000000 -0.000000 -0.000001 -1.443990 -6.451699 84.219531 3.515523 -4.515375 75.795067 0.000001 0.000001 -0.000000 -87.576972 -6.321254 6.095271 127.664500 6.000158 0.486424 35.521065 0.202485 0.720958 -0.230036 -0.000001 0.000002 -0.000001 0.000001 -0.000000 -41.921871 -11.673651 5.281250 56.470809 1.017624 1.353699 -25.377597 2.292358 -7.565809 1.294616 -0.001115 0.412670 -0.000000 0.000000 -0.000000 
1.056822 87.746788 39.304520 12.167474 -1.452615 -4.203094 10.860980 2.449251 5.928709 2.512573 0.388421 -0.101538 0.000000 0.000000 0.000000 5.375352 0.319863 -0.444561 -4.070070 -0.572483 0.096463 -17.422067 0.090383 -1.909409 0.000001 -0.000000 0.000000 0.550767 -4.131759 -11.649554 0.000000 0.000000 0.000000 15.857059 -4.083517 -55.500526 -0.000185 -84.180845 -0.000178 -0.007469 -3.522498 9.556834 -0.816961 6.649062 -5.842817 14.164832 15.374457 18.442518 -0.841093 -39.967436 12.911035 -0.000000 0.000001 -0.000002 10.008347 5.729144 -90.997934 4.064122 5.572416 -72.188481 -0.000000 -0.000002 -0.000000 4.897398 8.110477 -80.743997 4.669140 5.730854 -78.326287 -0.000001 -0.000000 -0.000000 2.740980 7.681203 -78.578929 5.961398 5.850029 -91.082458 0.000000 0.000004 0.000001 7.299123 13.584418 -78.671854 4.424742 5.675142 -75.867091 -0.000003 -0.000003 -0.000000 0.473736 5.340371 11.212078 0.000000 0.000000 0.000000 -18.532564 23.013668 45.080724 0.004513 92.047447 -0.004412 6.621911 11.435212 -18.486762 5.528079 -3.804567 -3.069124 2.442960 -9.034360 -15.978973 -8.976934 17.201039 -15.498556 -0.000001 -0.000001 -0.000000 -3.685747 -3.342034 73.312368 3.475272 -4.505013 75.283096 0.000001 0.000001 -0.000001 -3.084202 -5.003710 74.836518 3.779350 -4.573880 79.123937 0.000002 -0.000000 0.000002 -3.868931 -5.381836 79.076768 3.134949 -4.401889 70.902684 0.000001 -0.000002 -0.000004 -1.521174 -6.464701 84.494788 3.527863 -4.518466 75.951827 0.000002 -0.000000 -0.000001 -101.469864 -6.190158 7.006285 125.616796 5.225783 -0.707898 28.853342 0.362477 2.716988 0.255892 0.000005 0.000001 -0.000001 0.000000 -0.000000 -39.270869 -10.719068 5.676544 56.890059 -0.321083 0.253052 -28.513895 2.559795 -7.671179 0.639749 -0.016451 1.583903 0.000000 -0.000000 0.000000 
1.190283 87.827423 43.966682 12.544938 -1.523021 -3.412910 11.637742 3.124067 4.610222 2.983595 0.736435 -0.674759 0.000000 0.000000 0.000000 5.744164 0.609385 -1.028370 -3.883329 -0.735807 0.343319 -18.155240 -0.681945 -0.632056 0.000001 0.000000 0.000000 0.538975 -4.141283 -11.327451 0.000000 0.000000 0.000000 18.370858 -3.661176 -55.120880 0.000058 -80.178839 0.000032 -2.644592 -4.276819 7.635064 -0.807185 6.718943 -5.782604 14.154844 15.340508 18.552312 -0.825588 -40.346231 12.932236 0.000002 0.000001 -0.000001 10.177108 5.709220 -91.444854 4.091544 5.581108 -72.470739 0.000001 -0.000001 -0.000001 4.935991 8.117132 -81.132880 4.701052 5.737319 -78.645708 0.000002 -0.000001 -0.000001 2.707399 7.688531 -78.953326 6.001586 5.849127 -91.476710 0.000000 0.000000 -0.000000 7.265169 13.551547 -79.043956 4.454867 5.682599 -76.171629 -0.000001 -0.000003 -0.000001 0.447447 5.899441 10.987406 0.000000 0.000000 0.000000 -20.430621 18.612561 45.715201 -0.000031 95.070585 0.000023 7.385926 12.237847 -22.965992 5.508442 -3.890099 -3.161990 2.405765 -8.921133 -16.079537 -9.044109 17.500080 -15.464387 0.000002 0.000001 0.000001 -3.588206 -3.452418 73.842589 3.506333 -4.513027 75.678189 -0.000000 -0.000002 0.000002 -3.111891 -5.064218 75.383869 3.813396 -4.580258 79.550537 -0.000001 -0.000000 -0.000002 -3.994941 -5.440477 79.657252 3.162427 -4.411267 71.260019 -0.000000 0.000001 0.000001 -1.718445 -6.501706 85.197874 3.559448 -4.526232 76.352362 0.000002 0.000002 0.000002 -107.884894 -5.660896 8.434734 119.195585 2.230648 -2.274443 19.124926 -0.029570 1.680536 1.925025 -0.000001 0.000001 -0.000000 -0.000000 -0.000001 -35.778676 -9.798575 6.294964 56.557941 -0.140899 -0.757004 -30.921615 0.747255 -7.874855 -0.028698 -0.036555 2.360078 -0.000000 0.000000 -0.000000 
1.282549 88.035721 48.660324 12.254478 -1.477117 -3.261202 12.176184 3.825203 3.833923 3.317696 1.004297 -1.066091 0.000000 0.000000 0.000000 5.969669 0.834222 -1.426133 -3.184223 -0.852759 0.456090 -17.958345 -1.476783 0.463308 0.000002 0.000000 -0.000000 0.522139 -4.229543 -10.713360 0.000000 0.000000 0.000000 21.185309 -3.140015 -55.477573 0.000041 -77.628255 0.000075 -2.809218 -4.161622 6.201282 -0.792428 6.824521 -5.691688 14.139999 15.289262 18.718294 -0.799475 -40.918652 12.965666 -0.000002 0.000001 0.000001 10.431882 5.674548 -92.119581 4.133065 5.593989 -72.897106 0.000004 -0.000004 -0.000000 4.994383 8.126705 -81.720358 4.749328 5.746761 -79.128254 -0.000002 -0.000004 -0.000001 2.656616 7.700849 -79.518818 6.062258 5.847257 -92.072193 0.000002 -0.000001 -0.000001 7.213191 13.503602 -79.606101 4.500470 5.693581 -76.631683 0.000003 -0.000000 -0.000003 0.476047 6.147941 11.241231 0.000000 0.000000 0.000000 -21.265159 13.374088 46.275420 0.000005 97.989889 -0.000007 9.380798 14.068455 -25.678494 5.481892 -4.005305 -3.287312 2.355678 -8.768401 -16.214961 -9.135582 17.903017 -15.417528 -0.000001 -0.000000 -0.000002 -3.454680 -3.598516 74.557812 3.548283 -4.523513 76.210684 0.000003 0.000000 0.000002 -3.148544 -5.146990 76.121482 3.859370 -4.588459 80.125557 0.000002 0.000000 0.000000 -4.164350 -5.524048 80.439111 3.199518 -4.423653 71.741691 0.000001 -0.000002 0.000001 -1.984433 -6.560246 86.144620 3.602096 -4.536337 76.892323 -0.000003 0.000001 -0.000001 -107.567092 -5.184391 9.511580 109.555421 -1.689390 -3.870303 7.614779 -0.181372 -2.471059 3.699736 0.000000 -0.000001 -0.000000 -0.000000 0.000000 -31.293577 -9.204415 7.297292 55.601592 0.410261 -1.686850 -32.113985 -1.692557 -7.737597 -2.006003 -0.085014 2.549262 0.000000 0.000000 -0.000000 
1.363570 88.147682 53.759750 11.184703 -1.554727 -4.072877 12.231636 4.813272 3.977088 3.337157 1.195935 -1.180668 0.000000 0.000000 0.000000 5.874699 1.001686 -1.551851 -1.902039 -0.938613 0.463575 -16.471254 -2.235370 1.240855 0.000002 -0.000000 -0.000000 0.502962 -4.272992 -9.818083 0.000000 0.000000 0.000000 24.079251 -2.115463 -56.822055 0.000005 -75.922948 0.000006 -0.264734 -2.905609 5.031612 -0.773953 6.956874 -5.577707 14.121798 15.225081 18.926425 -0.762150 -41.636481 13.009951 0.000004 -0.000001 -0.000004 10.750799 5.623362 -92.964721 4.185239 5.609703 -73.431582 0.000002 -0.000002 -0.000003 5.067717 8.137888 -82.456789 4.809968 5.758015 -79.733170 -0.000001 0.000001 0.000002 2.592846 7.718442 -80.227634 6.138282 5.844038 -92.818630 0.000001 0.000001 0.000001 7.146923 13.446416 -80.310614 4.557746 5.706812 -77.208376 -0.000000 -0.000001 0.000002 0.544187 6.092850 11.960003 0.000000 0.000000 0.000000 -19.126922 9.551818 46.232796 -0.000034 99.943419 0.000063 10.224704 16.686932 -27.339038 5.453608 -4.127778 -3.420862 2.302413 -8.605659 -16.358858 -9.234103 18.331733 -15.366746 0.000002 0.000004 -0.000002 -3.309934 -3.750554 75.319938 3.593056 -4.534221 76.777596 -0.000000 0.000001 -0.000001 -3.186666 -5.236652 76.906591 3.908364 -4.596721 80.737658 0.000002 0.000002 0.000003 -4.343983 -5.618707 81.270748 3.239142 -4.436470 72.254461 0.000000 -0.000000 -0.000000 -2.267398 -6.633475 87.151315 3.647599 -4.546655 77.467077 0.000000 0.000002 -0.000002 -102.917154 -4.820410 9.809758 98.806725 -5.627389 -4.644838 -3.518586 1.706823 -7.665396 4.301061 -0.000002 0.000004 -0.000000 0.000000 -0.000001 -25.986303 -9.071547 8.648615 54.834777 1.422699 -2.340930 -31.865831 -4.130492 -6.790484 -6.265773 -0.134453 1.781662 0.000000 -0.000000 -0.000000 
